<?xml version="1.0" encoding="utf-8"?>
<!-- Generator: Adobe Illustrator 22.0.1, SVG Export Plug-In . SVG Version: 6.00 Build 0)  -->
<svg version="1.1" id="Layer_1" xmlns="http://www.w3.org/2000/svg" xmlns:xlink="http://www.w3.org/1999/xlink" x="0px" y="0px"
	 viewBox="0 0 97.7 94.9" style="enable-background:new 0 0 97.7 94.9;" xml:space="preserve">
<style type="text/css">
	.st0{fill:none;stroke:#BFBFBF;stroke-width:5;stroke-miterlimit:10;}
	.st1{fill:none;stroke:#FFFFFF;stroke-width:5;stroke-miterlimit:10;}
</style>
<g>
	<path class="st0" d="M29.7,86.4L9.4,66.2c-1.2-1.2-1.2-3.1,0-4.3l4.7-4.7c1.2-1.2,3.1-1.2,4.3,0l20.2,20.2c1.2,1.2,1.2,3.1,0,4.3
		L34,86.4C32.8,87.6,30.9,87.6,29.7,86.4z"/>
	<path class="st0" d="M81.7,17.7L58.5,41.9c-0.2,0.2-0.3,0.5-0.3,0.8c0.1,2.1-1,4.3-3.1,5.7c-2,1.3-4.4,1.4-6.2,0.3
		c-3.1-1.9-3.2-6.3-0.4-9c1.4-1.4,3.1-2,4.8-2c0.3,0,0.6-0.1,0.8-0.3l24.2-23.2c0.5-0.5,0.2-1.3-0.5-1.2l-43.3,9.4
		c-1.3,0.3-2.4,1.4-2.5,2.8c-1.5,12-7.6,21-10.1,24.2c-0.6,0.8-0.6,1.8,0,2.4l8.9,9.4l1.9,1.9l1.9,1.9l9.5,9c0.6,0.6,1.6,0.6,2.4,0
		c3.2-2.5,12.2-8.5,24.2-10.1c1.3-0.2,2.5-1.2,2.8-2.6l9.4-43.2C83,17.5,82.2,17.2,81.7,17.7z"/>
</g>
<g>
	<path class="st1" d="M33.2,86.8L13,66.6c-1.2-1.2-1.2-3.1,0-4.3l4.7-4.7c1.2-1.2,3.1-1.2,4.3,0l20.2,20.2c1.2,1.2,1.2,3.1,0,4.3
		l-4.7,4.7C36.4,88,34.4,88,33.2,86.8z"/>
	<path class="st1" d="M85.2,18.1L62,42.3c-0.2,0.2-0.3,0.5-0.3,0.8c0.1,2.1-1,4.3-3.1,5.7c-2,1.3-4.4,1.4-6.2,0.3
		c-3.1-1.9-3.2-6.3-0.4-9c1.4-1.4,3.1-2,4.8-2c0.3,0,0.6-0.1,0.8-0.3l24.2-23.2c0.5-0.5,0.2-1.3-0.5-1.2l-43.3,9.4
		c-1.3,0.3-2.4,1.4-2.5,2.8c-1.5,12-7.6,21-10.1,24.2c-0.6,0.8-0.6,1.8,0,2.4l8.9,9.4l1.9,1.9l1.9,1.9l9.5,9c0.6,0.6,1.6,0.6,2.4,0
		c3.2-2.5,12.2-8.5,24.2-10.1c1.3-0.2,2.5-1.2,2.8-2.6l9.4-43.2C86.5,17.9,85.7,17.6,85.2,18.1z"/>
</g>
</svg>
