<?xml version="1.0" encoding="UTF-8" standalone="no"?>
<!-- Generator: Adobe Illustrator 22.0.1, SVG Export Plug-In . SVG Version: 6.00 Build 0)  -->

<svg
   xmlns:dc="http://purl.org/dc/elements/1.1/"
   xmlns:cc="http://creativecommons.org/ns#"
   xmlns:rdf="http://www.w3.org/1999/02/22-rdf-syntax-ns#"
   xmlns:svg="http://www.w3.org/2000/svg"
   xmlns="http://www.w3.org/2000/svg"
   xmlns:sodipodi="http://sodipodi.sourceforge.net/DTD/sodipodi-0.dtd"
   xmlns:inkscape="http://www.inkscape.org/namespaces/inkscape"
   version="1.1"
   id="Layer_1"
   x="0px"
   y="0px"
   viewBox="0 0 97.7 94.9"
   style="enable-background:new 0 0 97.7 94.9;"
   xml:space="preserve"
   sodipodi:docname="Path.svg"
   inkscape:version="0.92.2 (5c3e80d, 2017-08-06)"><metadata
     id="metadata10548"><rdf:RDF><cc:Work
         rdf:about=""><dc:format>image/svg+xml</dc:format><dc:type
           rdf:resource="http://purl.org/dc/dcmitype/StillImage" /></cc:Work></rdf:RDF></metadata><defs
     id="defs10546" /><sodipodi:namedview
     pagecolor="#ffffff"
     bordercolor="#666666"
     borderopacity="1"
     objecttolerance="10"
     gridtolerance="10"
     guidetolerance="10"
     inkscape:pageopacity="0"
     inkscape:pageshadow="2"
     inkscape:window-width="640"
     inkscape:window-height="480"
     id="namedview10544"
     showgrid="false"
     inkscape:zoom="4.2471113"
     inkscape:cx="50.931139"
     inkscape:cy="47.450001"
     inkscape:current-layer="Layer_1" /><style
     type="text/css"
     id="style10529">
	.st0{fill:none;stroke:#BFBFBF;stroke-width:5;stroke-miterlimit:10;}
	.st1{fill:none;stroke:#FFFFFF;stroke-width:5;stroke-miterlimit:10;}
</style><g
     id="g10541"
     transform="translate(-0.41587343,-3.1070335)"><path
       class="st1"
       d="M 33.2,86.8 13,66.6 c -1.2,-1.2 -1.2,-3.1 0,-4.3 l 4.7,-4.7 c 1.2,-1.2 3.1,-1.2 4.3,0 l 20.2,20.2 c 1.2,1.2 1.2,3.1 0,4.3 l -4.7,4.7 c -1.1,1.2 -3.1,1.2 -4.3,0 z"
       id="path10537"
       inkscape:connector-curvature="0"
       style="fill:none;stroke:#ffffff;stroke-width:5;stroke-miterlimit:10" /><path
       class="st1"
       d="M 85.2,18.1 62,42.3 c -0.2,0.2 -0.3,0.5 -0.3,0.8 0.1,2.1 -1,4.3 -3.1,5.7 -2,1.3 -4.4,1.4 -6.2,0.3 -3.1,-1.9 -3.2,-6.3 -0.4,-9 1.4,-1.4 3.1,-2 4.8,-2 0.3,0 0.6,-0.1 0.8,-0.3 L 81.8,14.6 C 82.3,14.1 82,13.3 81.3,13.4 L 38,22.8 c -1.3,0.3 -2.4,1.4 -2.5,2.8 -1.5,12 -7.6,21 -10.1,24.2 -0.6,0.8 -0.6,1.8 0,2.4 l 8.9,9.4 1.9,1.9 1.9,1.9 9.5,9 c 0.6,0.6 1.6,0.6 2.4,0 3.2,-2.5 12.2,-8.5 24.2,-10.1 1.3,-0.2 2.5,-1.2 2.8,-2.6 l 9.4,-43.2 c 0.1,-0.6 -0.7,-0.9 -1.2,-0.4 z"
       id="path10539"
       inkscape:connector-curvature="0"
       style="fill:none;stroke:#ffffff;stroke-width:5;stroke-miterlimit:10" /></g></svg>