<?xml version="1.0" encoding="iso-8859-1"?>
<!-- Generator: Adobe Illustrator 16.0.0, SVG Export Plug-In . SVG Version: 6.00 Build 0)  -->
<!DOCTYPE svg PUBLIC "-//W3C//DTD SVG 1.1//EN" "http://www.w3.org/Graphics/SVG/1.1/DTD/svg11.dtd">
<svg xmlns="http://www.w3.org/2000/svg" xmlns:xlink="http://www.w3.org/1999/xlink" version="1.1" id="Capa_1" x="0px" y="0px" width="512px" height="512px" viewBox="0 0 511.63 511.631" style="enable-background:new 0 0 511.63 511.631;" xml:space="preserve">
<g>
	<g>
		<path d="M18.274,237.548h438.542c4.949,0,9.229-1.812,12.847-5.429c3.614-3.612,5.421-7.898,5.421-12.845v-36.547    c0-4.952-1.807-9.231-5.421-12.847c-3.617-3.617-7.897-5.424-12.847-5.424H18.274c-4.952,0-9.233,1.807-12.851,5.424    C1.809,173.495,0,177.778,0,182.727v36.547c0,4.947,1.809,9.233,5.424,12.845C9.044,235.736,13.326,237.548,18.274,237.548z" fill="#FFFFFF"/>
		<path d="M18.274,127.909h328.897c4.948,0,9.236-1.809,12.854-5.424c3.613-3.617,5.424-7.898,5.424-12.847V73.091    c0-4.948-1.811-9.229-5.424-12.85c-3.617-3.612-7.905-5.424-12.854-5.424H18.274c-4.952,0-9.233,1.812-12.851,5.424    C1.809,63.858,0,68.143,0,73.091v36.547c0,4.948,1.809,9.229,5.424,12.847C9.044,126.1,13.326,127.909,18.274,127.909z" fill="#FFFFFF"/>
		<path d="M506.206,389.147c-3.617-3.617-7.905-5.427-12.85-5.427H18.274c-4.952,0-9.233,1.81-12.851,5.427    C1.809,392.762,0,397.046,0,401.994v36.546c0,4.948,1.809,9.232,5.424,12.854c3.621,3.61,7.904,5.421,12.851,5.421h475.082    c4.944,0,9.232-1.811,12.85-5.421c3.614-3.621,5.425-7.905,5.425-12.854v-36.546C511.63,397.046,509.82,392.762,506.206,389.147z" fill="#FFFFFF"/>
		<path d="M18.274,347.179h365.449c4.948,0,9.233-1.811,12.847-5.428c3.617-3.614,5.428-7.898,5.428-12.847v-36.542    c0-4.945-1.811-9.233-5.428-12.847c-3.613-3.617-7.898-5.428-12.847-5.428H18.274c-4.952,0-9.233,1.811-12.851,5.428    C1.809,283.129,0,287.417,0,292.362v36.545c0,4.948,1.809,9.236,5.424,12.847C9.044,345.371,13.326,347.179,18.274,347.179z" fill="#FFFFFF"/>
	</g>
</g>
<g>
</g>
<g>
</g>
<g>
</g>
<g>
</g>
<g>
</g>
<g>
</g>
<g>
</g>
<g>
</g>
<g>
</g>
<g>
</g>
<g>
</g>
<g>
</g>
<g>
</g>
<g>
</g>
<g>
</g>
</svg>
