<?xml version="1.0" encoding="iso-8859-1"?>
<!-- Generator: Adobe Illustrator 16.0.0, SVG Export Plug-In . SVG Version: 6.00 Build 0)  -->
<!DOCTYPE svg PUBLIC "-//W3C//DTD SVG 1.1//EN" "http://www.w3.org/Graphics/SVG/1.1/DTD/svg11.dtd">
<svg xmlns="http://www.w3.org/2000/svg" xmlns:xlink="http://www.w3.org/1999/xlink" version="1.1" id="Capa_1" x="0px" y="0px" width="512px" height="512px" viewBox="0 0 511.63 511.631" style="enable-background:new 0 0 511.63 511.631;" xml:space="preserve">
<g>
	<g>
		<path d="M493.356,383.721H18.274c-4.952,0-9.233,1.81-12.851,5.427C1.809,392.762,0,397.046,0,401.994v36.546    c0,4.948,1.809,9.232,5.424,12.854c3.621,3.61,7.904,5.421,12.851,5.421h475.082c4.944,0,9.232-1.811,12.85-5.421    c3.614-3.621,5.425-7.905,5.425-12.854v-36.546c0-4.948-1.811-9.232-5.425-12.847C502.588,385.53,498.3,383.721,493.356,383.721z" fill="#FFFFFF"/>
		<path d="M493.356,274.088H127.91c-4.952,0-9.233,1.811-12.85,5.428c-3.618,3.613-5.424,7.901-5.424,12.847v36.545    c0,4.948,1.807,9.236,5.424,12.847c3.62,3.617,7.901,5.432,12.85,5.432h365.446c4.944,0,9.232-1.814,12.85-5.432    c3.614-3.61,5.425-7.898,5.425-12.847v-36.545c0-4.945-1.811-9.233-5.425-12.847C502.588,275.895,498.3,274.088,493.356,274.088z" fill="#FFFFFF"/>
		<path d="M493.356,164.456H54.821c-4.952,0-9.235,1.807-12.85,5.424c-3.617,3.615-5.424,7.898-5.424,12.847v36.547    c0,4.947,1.807,9.233,5.424,12.845c3.619,3.617,7.898,5.429,12.85,5.429h438.535c4.944,0,9.232-1.812,12.85-5.429    c3.614-3.612,5.425-7.898,5.425-12.845v-36.547c0-4.952-1.811-9.231-5.425-12.847C502.588,166.263,498.3,164.456,493.356,164.456z    " fill="#FFFFFF"/>
		<path d="M506.206,60.241c-3.617-3.612-7.905-5.424-12.85-5.424H164.457c-4.952,0-9.235,1.812-12.85,5.424    c-3.617,3.617-5.426,7.902-5.426,12.85v36.547c0,4.948,1.809,9.229,5.426,12.847c3.619,3.616,7.901,5.424,12.85,5.424h328.899    c4.944,0,9.232-1.809,12.85-5.424c3.614-3.617,5.425-7.898,5.425-12.847V73.091C511.63,68.143,509.82,63.861,506.206,60.241z" fill="#FFFFFF"/>
	</g>
</g>
<g>
</g>
<g>
</g>
<g>
</g>
<g>
</g>
<g>
</g>
<g>
</g>
<g>
</g>
<g>
</g>
<g>
</g>
<g>
</g>
<g>
</g>
<g>
</g>
<g>
</g>
<g>
</g>
<g>
</g>
</svg>
