<?xml version="1.0" encoding="iso-8859-1"?>
<!-- Generator: Adobe Illustrator 17.1.0, SVG Export Plug-In . SVG Version: 6.00 Build 0)  -->
<!DOCTYPE svg PUBLIC "-//W3C//DTD SVG 1.1//EN" "http://www.w3.org/Graphics/SVG/1.1/DTD/svg11.dtd">
<svg xmlns="http://www.w3.org/2000/svg" xmlns:xlink="http://www.w3.org/1999/xlink" version="1.1" id="Capa_1" x="0px" y="0px" viewBox="0 0 246.027 246.027" style="enable-background:new 0 0 246.027 246.027;" xml:space="preserve" width="512px" height="512px">
<path d="M242.751,196.508L143.937,25.358c-4.367-7.564-12.189-12.081-20.924-12.081c-8.735,0-16.557,4.516-20.924,12.081  L3.276,196.508c-4.368,7.564-4.368,16.596,0,24.161s12.189,12.081,20.924,12.081h197.629c8.734,0,16.556-4.516,20.923-12.08  C247.119,213.105,247.118,204.073,242.751,196.508z M123.014,204.906c-8.672,0-15.727-7.055-15.727-15.727  c0-8.671,7.055-15.726,15.727-15.726s15.727,7.055,15.727,15.726C138.74,197.852,131.685,204.906,123.014,204.906z M138.847,137.68  c0,8.73-7.103,15.833-15.833,15.833s-15.833-7.103-15.833-15.833V65.013c0-4.142,3.358-7.5,7.5-7.5h16.667  c4.143,0,7.5,3.358,7.5,7.5V137.68z" fill="#FFFFFF"/>
<g>
</g>
<g>
</g>
<g>
</g>
<g>
</g>
<g>
</g>
<g>
</g>
<g>
</g>
<g>
</g>
<g>
</g>
<g>
</g>
<g>
</g>
<g>
</g>
<g>
</g>
<g>
</g>
<g>
</g>
</svg>
