<?xml version="1.0" encoding="iso-8859-1"?>
<!-- Generator: Adobe Illustrator 19.0.0, SVG Export Plug-In . SVG Version: 6.00 Build 0)  -->
<svg xmlns="http://www.w3.org/2000/svg" xmlns:xlink="http://www.w3.org/1999/xlink" version="1.1" id="Capa_1" x="0px" y="0px" viewBox="0 0 508.52 508.52" style="enable-background:new 0 0 508.52 508.52;" xml:space="preserve" width="512px" height="512px">
<g>
	<g>
		<g>
			<path d="M254.26,0C113.845,0,0,113.845,0,254.26s113.845,254.26,254.26,254.26     s254.26-113.845,254.26-254.26S394.675,0,254.26,0z M372.046,183.925l-121.79,186.15l-0.095,0.064l-1.78,2.956l-3.814,2.765     l-0.985,0.667l-6.229,2.606l-2.161,0.509l-5.339,0.127l-3.719-0.636l-3.655-1.43l-3.051-1.208l-1.684-1.685l-0.826-0.509     l-70.907-65.567c-9.026-8.359-9.567-22.438-1.24-31.433c8.327-8.994,22.407-9.567,31.433-1.24l51.329,47.483L334.797,159.58     c6.738-10.266,20.531-13.158,30.797-6.452C375.891,159.866,378.784,173.659,372.046,183.925z" fill="#FFFFFF"/>
		</g>
	</g>
</g>
<g>
</g>
<g>
</g>
<g>
</g>
<g>
</g>
<g>
</g>
<g>
</g>
<g>
</g>
<g>
</g>
<g>
</g>
<g>
</g>
<g>
</g>
<g>
</g>
<g>
</g>
<g>
</g>
<g>
</g>
</svg>
