<?xml version="1.0" encoding="iso-8859-1"?>
<!-- Generator: Adobe Illustrator 16.0.0, SVG Export Plug-In . SVG Version: 6.00 Build 0)  -->
<!DOCTYPE svg PUBLIC "-//W3C//DTD SVG 1.1//EN" "http://www.w3.org/Graphics/SVG/1.1/DTD/svg11.dtd">
<svg xmlns="http://www.w3.org/2000/svg" xmlns:xlink="http://www.w3.org/1999/xlink" version="1.1" id="Capa_1" x="0px" y="0px" width="512px" height="512px" viewBox="0 0 535.5 535.5" style="enable-background:new 0 0 535.5 535.5;" xml:space="preserve">
<g>
	<g id="content-cut">
		<path d="M204,114.75c0-56.1-45.9-102-102-102S0,58.65,0,114.75s45.9,102,102,102c15.3,0,28.05-2.55,40.8-10.2l61.2,61.2    l-61.2,61.2c-12.75-7.65-25.5-10.2-40.8-10.2c-56.1,0-102,45.9-102,102s45.9,102,102,102s102-45.9,102-102    c0-15.3-2.55-28.05-10.2-40.8l61.2-61.2l178.5,178.5h102l-341.7-341.7C201.45,142.8,204,130.05,204,114.75z M102,165.75    c-28.05,0-51-22.95-51-51s22.95-51,51-51s51,22.95,51,51S130.05,165.75,102,165.75z M102,471.75c-28.05,0-51-22.95-51-51    s22.95-51,51-51s51,22.95,51,51S130.05,471.75,102,471.75z M255,255c7.65,0,12.75,5.1,12.75,12.75c0,7.65-5.1,12.75-12.75,12.75    c-7.65,0-12.75-5.1-12.75-12.75C242.25,260.1,247.35,255,255,255z M535.5,38.25h-102l-153,153l51,51L535.5,38.25z" fill="#FFFFFF"/>
	</g>
</g>
<g>
</g>
<g>
</g>
<g>
</g>
<g>
</g>
<g>
</g>
<g>
</g>
<g>
</g>
<g>
</g>
<g>
</g>
<g>
</g>
<g>
</g>
<g>
</g>
<g>
</g>
<g>
</g>
<g>
</g>
</svg>
