<svg xmlns="http://www.w3.org/2000/svg" viewBox="0 0 373.92 375.17"><defs><style>.cls-1{fill:#fff;stroke:#231f20;stroke-miterlimit:10;stroke-width:15px;}.cls-2{fill:#fee7e2;}.cls-3{fill:#231f20;}</style></defs><title>Floating 1</title><g id="Layer_2" data-name="Layer 2"><g id="Layer_1-2" data-name="Layer 1"><path class="cls-1" d="M289,365.16a1.92,1.92,0,0,0,3.14.48c12-12.87,65.1-91.72,73-159.3,6.38-54.55-11.91-102.59-31.8-127.7-16-20.19-53.82-74.48-158.09-71C68.08,11.25-12.59,115.09,11.91,221.37c19.2,83.29,64.77,136.4,76.81,145.88a1.92,1.92,0,0,0,3-.92L121,324a1.93,1.93,0,0,1,3.26-.69l34,42.44a1.93,1.93,0,0,0,3-.16l28.47-41.79a1.93,1.93,0,0,1,3.16.06l26.23,40.39a1.93,1.93,0,0,0,3.12.11l34.29-43.9a1.93,1.93,0,0,1,3.25.35Z"/><ellipse class="cls-2" cx="239.99" cy="161.99" rx="64.1" ry="23.91" transform="translate(-8.52 13.41) rotate(-3.14)"/><ellipse class="cls-3" cx="209.09" cy="140.14" rx="8.43" ry="11.24"/><ellipse class="cls-3" cx="268.07" cy="140.14" rx="8.43" ry="11.24"/></g></g></svg>