<?xml version="1.0" encoding="iso-8859-1"?>
<!-- Generator: Adobe Illustrator 19.0.0, SVG Export Plug-In . SVG Version: 6.00 Build 0)  -->
<svg xmlns="http://www.w3.org/2000/svg" xmlns:xlink="http://www.w3.org/1999/xlink" version="1.1" id="Capa_1" x="0px" y="0px" viewBox="0 0 57 57" style="enable-background:new 0 0 57 57;" xml:space="preserve" width="512px" height="512px">
<path d="M54.243,6.418c-0.694,0-1.36,0.269-1.863,0.748L41,17.669V8.944C41,6.218,38.782,4,36.056,4H4.944C2.218,4,0,6.218,0,8.944  v23.265C0,34.851,2.149,37,4.791,37h14.775l-6.762,14.579c-0.232,0.501-0.015,1.096,0.486,1.328C13.426,52.971,13.569,53,13.71,53  c0.377,0,0.738-0.215,0.908-0.579l6.514-14.044l6.514,14.044C27.815,52.785,28.176,53,28.553,53c0.141,0,0.284-0.029,0.42-0.093  c0.501-0.232,0.719-0.827,0.486-1.328L22.698,37h13.129C38.679,37,41,34.679,41,31.826v-8.002l11.31,10.808  c0.521,0.525,1.208,0.815,1.933,0.815c1.521,0,2.758-1.24,2.758-2.765v-23.5C57,7.658,55.763,6.418,54.243,6.418z M6,16.5  c0-3.584,2.916-6.5,6.5-6.5s6.5,2.916,6.5,6.5c0,1.173-0.317,2.272-0.863,3.223l-3.43-3.43c-0.391-0.391-1.023-0.391-1.414,0  s-0.391,1.023,0,1.414l3.584,3.584C15.721,22.349,14.187,23,12.5,23C8.916,23,6,20.084,6,16.5z" fill="#FFFFFF"/>
<g>
</g>
<g>
</g>
<g>
</g>
<g>
</g>
<g>
</g>
<g>
</g>
<g>
</g>
<g>
</g>
<g>
</g>
<g>
</g>
<g>
</g>
<g>
</g>
<g>
</g>
<g>
</g>
<g>
</g>
</svg>
