<?xml version="1.0" encoding="UTF-8" standalone="no"?>
<!-- Generator: Adobe Illustrator 19.0.0, SVG Export Plug-In . SVG Version: 6.00 Build 0)  -->

<svg
   xmlns:dc="http://purl.org/dc/elements/1.1/"
   xmlns:cc="http://creativecommons.org/ns#"
   xmlns:rdf="http://www.w3.org/1999/02/22-rdf-syntax-ns#"
   xmlns:svg="http://www.w3.org/2000/svg"
   xmlns="http://www.w3.org/2000/svg"
   xmlns:sodipodi="http://sodipodi.sourceforge.net/DTD/sodipodi-0.dtd"
   xmlns:inkscape="http://www.inkscape.org/namespaces/inkscape"
   version="1.1"
   id="Capa_1"
   x="0px"
   y="0px"
   viewBox="0 0 508.52 508.52"
   style="enable-background:new 0 0 508.52 508.52;"
   xml:space="preserve"
   width="512px"
   height="512px"
   sodipodi:docname="info.svg"
   inkscape:version="0.92.2 (5c3e80d, 2017-08-06)"><metadata
     id="metadata45"><rdf:RDF><cc:Work
         rdf:about=""><dc:format>image/svg+xml</dc:format><dc:type
           rdf:resource="http://purl.org/dc/dcmitype/StillImage" /></cc:Work></rdf:RDF></metadata><defs
     id="defs43" /><sodipodi:namedview
     pagecolor="#ffffff"
     bordercolor="#666666"
     borderopacity="1"
     objecttolerance="10"
     gridtolerance="10"
     guidetolerance="10"
     inkscape:pageopacity="0"
     inkscape:pageshadow="2"
     inkscape:window-width="640"
     inkscape:window-height="480"
     id="namedview41"
     showgrid="false"
     inkscape:zoom="1.1132812"
     inkscape:cx="234.44211"
     inkscape:cy="256"
     inkscape:current-layer="Capa_1" /><g
     id="g10" /><g
     id="g12" /><g
     id="g14" /><g
     id="g16" /><g
     id="g18" /><g
     id="g20" /><g
     id="g22" /><g
     id="g24" /><g
     id="g26" /><g
     id="g28" /><g
     id="g30" /><g
     id="g32" /><g
     id="g34" /><g
     id="g36" /><g
     id="g38" /><path
     style="opacity:1;fill:#ffffff;fill-opacity:1;fill-rule:nonzero;stroke:none;stroke-width:38.20718384;stroke-linecap:round;stroke-linejoin:round;stroke-miterlimit:4;stroke-dasharray:none;stroke-dashoffset:0;stroke-opacity:1;paint-order:normal"
     d="M 256 0 A 255.99999 255.99999 0 0 0 0 256 A 255.99999 255.99999 0 0 0 256 512 A 255.99999 255.99999 0 0 0 512 256 A 255.99999 255.99999 0 0 0 256 0 z M 282.43359 82.283203 C 287.9152 82.283203 293.10907 83.436092 298.01367 85.744141 C 303.20678 87.763683 307.67716 90.649812 311.42773 94.400391 C 315.17831 97.862463 318.06444 102.1897 320.08398 107.38281 C 322.39203 112.28742 323.54492 117.62441 323.54492 123.39453 C 323.54492 129.16466 322.39203 134.64673 320.08398 139.83984 C 318.06444 144.74445 315.17831 149.07169 311.42773 152.82227 C 307.67716 156.28434 303.20678 159.16851 298.01367 161.47656 C 293.10907 163.4961 287.9152 164.50586 282.43359 164.50586 C 276.66347 164.50586 271.32648 163.4961 266.42188 161.47656 C 261.51727 159.16851 257.19003 156.28434 253.43945 152.82227 C 249.68887 149.07169 246.65961 144.74445 244.35156 139.83984 C 242.33202 134.64673 241.32227 129.16466 241.32227 123.39453 C 241.32227 117.62441 242.33202 112.28742 244.35156 107.38281 C 246.65961 102.1897 249.68887 97.862463 253.43945 94.400391 C 257.19003 90.649812 261.51727 87.763683 266.42188 85.744141 C 271.32648 83.436092 276.66347 82.283203 282.43359 82.283203 z M 239.58984 180.95117 C 245.93697 180.95117 251.9955 182.10601 257.76562 184.41406 C 263.53574 186.4336 268.58452 189.46287 272.91211 193.50195 C 277.2397 197.25253 280.55914 202.01308 282.86719 207.7832 C 285.46374 213.26482 286.76172 219.46648 286.76172 226.39062 C 286.76172 231.87224 286.18332 236.92101 285.0293 241.53711 L 259.06445 350.16016 L 263.39258 353.18945 L 321.38281 313.375 L 348.64648 354.05469 L 285.89648 396.46484 C 280.12636 400.50393 274.21097 403.39005 268.15234 405.12109 C 262.09372 406.85213 256.18028 407.7168 250.41016 407.7168 C 244.06302 407.7168 238.0045 406.56391 232.23438 404.25586 C 226.46426 402.23632 221.41548 399.35019 217.08789 395.59961 C 212.7603 391.56052 209.29773 386.79997 206.70117 381.31836 C 204.39312 375.54823 203.23828 369.20149 203.23828 362.27734 C 203.23828 356.79573 203.81668 351.74695 204.9707 347.13086 L 230.93555 238.50781 L 226.60742 235.47852 L 168.61719 275.29297 L 141.35352 234.61328 L 204.10352 192.20312 C 209.87363 188.16404 215.78903 185.27987 221.84766 183.54883 C 227.90628 181.8178 233.81972 180.95117 239.58984 180.95117 z "
     transform="scale(0.99320312)"
     id="path855" /></svg>