<?xml version="1.0" encoding="iso-8859-1"?>
<!-- Generator: Adobe Illustrator 16.0.0, SVG Export Plug-In . SVG Version: 6.00 Build 0)  -->
<!DOCTYPE svg PUBLIC "-//W3C//DTD SVG 1.1//EN" "http://www.w3.org/Graphics/SVG/1.1/DTD/svg11.dtd">
<svg xmlns="http://www.w3.org/2000/svg" xmlns:xlink="http://www.w3.org/1999/xlink" version="1.1" id="Capa_1" x="0px" y="0px" width="512px" height="512px" viewBox="0 0 983.81 983.81" style="enable-background:new 0 0 983.81 983.81;" xml:space="preserve">
<g>
	<path d="M208.854,257.755c-16.4,4-31.7,12.3-44,23.9c-12.7,11.9-22.1,27.1-27.1,44L4.154,778.154c-7.6,25.7-4.7,52.9,8.1,76.5   c12.8,23.601,34.1,40.7,59.8,48.301l245.7,72.5c17.5,5.199,36.1,5.6,53.8,1.3c17.3-4.2,33.399-12.9,46.399-25.101   c13.5-12.6,23.4-28.6,28.601-46.199l25.899-87.601l10.301-35c2.399-8,0.399-16.5-5.4-22.5c-5.7-6-14.3-8.5-22.2-6.6   c-3.399,0.8-6.5,2.399-9.3,4.7c-9.1,7.5-19.2,12.699-29.9,15.399c-10.1,2.5-21,2.7-32.399,0.7c-4.3-0.8-8.601-0.6-12.8,0.4   c-10.7,2.6-19.2,10.8-22.301,21.3l-15.8,53.399l-201.6-59.5l119.1-403.499l134.8,39.8c5.2,1.5,10.801,1.699,16.101,0.399   c10.7-2.6,19.2-10.8,22.3-21.3l17.9-60.6c4.8-16.4-4.601-33.6-20.9-38.4l-160.3-47.3   C243.455,254.055,225.754,253.555,208.854,257.755z" fill="#FFFFFF"/>
	<path d="M911.755,80.855l-245.7-72.5c-17.5-5.2-36.101-5.6-53.8-1.3c-17.301,4.3-33.4,13-46.4,25.1c-13.5,12.6-23.4,28.6-28.6,46.3   l-25.9,87.6l-10.3,35c-2.4,8-0.4,16.5,5.399,22.5c5.7,6,14.301,8.5,22.2,6.6c3.4-0.8,6.5-2.4,9.3-4.7   c9.101-7.5,19.2-12.7,29.9-15.4c10.1-2.5,21-2.7,32.4-0.7c4.3,0.8,8.6,0.6,12.8-0.4c10.7-2.6,19.2-10.8,22.3-21.3l15.8-53.4   l201.601,59.5L733.654,597.354l-134.899-39.8c-5.2-1.5-10.801-1.7-16.101-0.4c-10.7,2.601-19.2,10.801-22.3,21.301l-17.9,60.6   c-4.8,16.4,4.601,33.6,20.9,38.4l160.3,47.3c16.7,4.899,34.4,5.399,51.3,1.2c16.4-4,31.7-12.301,44-23.9   c12.7-11.9,22.101-27.1,27.101-44l133.6-452.6c7.601-25.7,4.7-52.9-8.1-76.5C958.755,105.655,937.555,88.455,911.755,80.855z" fill="#FFFFFF"/>
	<path d="M685.354,979.255c9.4,0,18.9-2.9,27-9c19.9-14.9,23.9-43.101,8.9-63l-117-155.5c-14.9-19.9-43.101-23.9-63-8.9   c-19.9,14.9-23.9,43.101-8.9,63l117,155.5C658.154,973.055,671.654,979.255,685.354,979.255z" fill="#FFFFFF"/>
	<path d="M419.555,249.255c10.399,0,20.899-3.6,29.399-11c18.801-16.3,20.9-44.7,4.601-63.5l-132.601-153.3   c-16.3-18.8-44.7-20.9-63.5-4.6c-18.8,16.3-20.8,44.7-4.6,63.5l132.6,153.4C394.454,244.055,406.954,249.255,419.555,249.255z" fill="#FFFFFF"/>
</g>
<g>
</g>
<g>
</g>
<g>
</g>
<g>
</g>
<g>
</g>
<g>
</g>
<g>
</g>
<g>
</g>
<g>
</g>
<g>
</g>
<g>
</g>
<g>
</g>
<g>
</g>
<g>
</g>
<g>
</g>
</svg>
