<?xml version="1.0" encoding="UTF-8" standalone="no"?>
<!-- Generator: Adobe Illustrator 16.0.0, SVG Export Plug-In . SVG Version: 6.00 Build 0)  -->

<svg
   xmlns:dc="http://purl.org/dc/elements/1.1/"
   xmlns:cc="http://creativecommons.org/ns#"
   xmlns:rdf="http://www.w3.org/1999/02/22-rdf-syntax-ns#"
   xmlns:svg="http://www.w3.org/2000/svg"
   xmlns="http://www.w3.org/2000/svg"
   xmlns:sodipodi="http://sodipodi.sourceforge.net/DTD/sodipodi-0.dtd"
   xmlns:inkscape="http://www.inkscape.org/namespaces/inkscape"
   version="1.1"
   id="Capa_1"
   x="0px"
   y="0px"
   width="512px"
   height="512px"
   viewBox="0 0 408 408"
   style="enable-background:new 0 0 408 408;"
   xml:space="preserve"
   inkscape:version="0.91 r13725"
   sodipodi:docname="inspector-no-selection.svg"><metadata
     id="metadata42"><rdf:RDF><cc:Work
         rdf:about=""><dc:format>image/svg+xml</dc:format><dc:type
           rdf:resource="http://purl.org/dc/dcmitype/StillImage" /></cc:Work></rdf:RDF></metadata><defs
     id="defs40" /><sodipodi:namedview
     pagecolor="#ffffff"
     bordercolor="#666666"
     borderopacity="1"
     objecttolerance="10"
     gridtolerance="10"
     guidetolerance="10"
     inkscape:pageopacity="0"
     inkscape:pageshadow="2"
     inkscape:window-width="640"
     inkscape:window-height="480"
     id="namedview38"
     showgrid="false"
     inkscape:zoom="0.4609375"
     inkscape:cx="256"
     inkscape:cy="256"
     inkscape:window-x="368"
     inkscape:window-y="220"
     inkscape:window-maximized="0"
     inkscape:current-layer="Capa_1" /><g
     id="g3"
     transform="matrix(0.75,0,0,0.86440682,51.864405,39.76271)"><g
       id="more-horiz"><path
         d="m 51,153 c -28.05,0 -51,22.95 -51,51 0,28.05 22.95,51 51,51 28.05,0 51,-22.95 51,-51 0,-28.05 -22.95,-51 -51,-51 z m 306,0 c -28.05,0 -51,22.95 -51,51 0,28.05 22.95,51 51,51 28.05,0 51,-22.95 51,-51 0,-28.05 -22.95,-51 -51,-51 z m -153,0 c -28.05,0 -51,22.95 -51,51 0,28.05 22.95,51 51,51 28.05,0 51,-22.95 51,-51 0,-28.05 -22.95,-51 -51,-51 z"
         id="path6"
         inkscape:connector-curvature="0"
         style="fill:#ffffff" /></g></g><g
     id="g8" /><g
     id="g10" /><g
     id="g12" /><g
     id="g14" /><g
     id="g16" /><g
     id="g18" /><g
     id="g20" /><g
     id="g22" /><g
     id="g24" /><g
     id="g26" /><g
     id="g28" /><g
     id="g30" /><g
     id="g32" /><g
     id="g34" /><g
     id="g36" /></svg>