<?xml version="1.0" encoding="iso-8859-1"?>
<!-- Generator: Adobe Illustrator 16.0.0, SVG Export Plug-In . SVG Version: 6.00 Build 0)  -->
<!DOCTYPE svg PUBLIC "-//W3C//DTD SVG 1.1//EN" "http://www.w3.org/Graphics/SVG/1.1/DTD/svg11.dtd">
<svg xmlns="http://www.w3.org/2000/svg" xmlns:xlink="http://www.w3.org/1999/xlink" version="1.1" id="Capa_1" x="0px" y="0px" width="512px" height="512px" viewBox="0 0 561 561" style="enable-background:new 0 0 561 561;" xml:space="preserve">
<g>
	<g id="queue">
		<path d="M51,102H0v408c0,28.05,22.95,51,51,51h408v-51H51V102z M510,0H153c-28.05,0-51,22.95-51,51v357c0,28.05,22.95,51,51,51    h357c28.05,0,51-22.95,51-51V51C561,22.95,538.05,0,510,0z M459,255H357v102h-51V255H204v-51h102V102h51v102h102V255z" fill="#FFFFFF"/>
	</g>
</g>
<g>
</g>
<g>
</g>
<g>
</g>
<g>
</g>
<g>
</g>
<g>
</g>
<g>
</g>
<g>
</g>
<g>
</g>
<g>
</g>
<g>
</g>
<g>
</g>
<g>
</g>
<g>
</g>
<g>
</g>
</svg>
