<?xml version="1.0" encoding="iso-8859-1"?>
<svg xmlns="http://www.w3.org/2000/svg" xmlns:xlink="http://www.w3.org/1999/xlink" version="1.1" viewBox="0 0 30 30" enable-background="new 0 0 30 30" width="512px" height="512px">
  <g>
    <g>
      <path d="m29,26h-27v-5h25c0.553,0 1-0.447 1-1 0-0.553-0.447-1-1-1h-25v-5h25c0.553,0 1-0.447 1-1 0-0.553-0.447-1-1-1h-25v-5h27c0.553,0 1-0.447 1-1 0-0.553-0.447-1-1-1h-28c-0.553,0-1,0.447-1,1v21c0,0.553 0.447,1 1,1h28c0.553,0 1-0.447 1-1 0-0.553-0.447-1-1-1z" fill="#FFFFFF"/>
    </g>
  </g>
  <g>
    <g>
      <path d="M24,0h-4c-0.553,0-1,0.447-1,1c0,0.276,0.112,0.526,0.293,0.707L21,3.414V29c0,0.553,0.447,1,1,1c0.553,0,1-0.447,1-1    V3.414l1.707-1.707C24.888,1.526,25,1.276,25,1C25,0.447,24.553,0,24,0z M18,8h-8C9.447,8,9,8.447,9,9v4c0,0.553,0.447,1,1,1h8    c0.553,0,1-0.447,1-1V9C19,8.447,18.553,8,18,8z M17,12h-6v-2h6V12z" fill="#FFFFFF"/>
    </g>
  </g>
</svg>
