<?xml version="1.0" encoding="UTF-8"?>
<svg width="16px" height="16px" viewBox="0 0 16 16" version="1.1" xmlns="http://www.w3.org/2000/svg" xmlns:xlink="http://www.w3.org/1999/xlink">
    <!-- Generator: Sketch 42 (36781) - http://www.bohemiancoding.com/sketch -->
    <title>Group</title>
    <desc>Created with Sketch.</desc>
    <defs></defs>
    <g id="Page-1" stroke="none" stroke-width="1" fill="none" fill-rule="evenodd">
        <g id="Artboard-6" transform="translate(-19.000000, -71.000000)" fill="#FFFFFF">
            <g id="Group" transform="translate(19.000000, 71.000000)">
                <g id="LayerHandleRedrawn">
                    <g id="Group-3">
                        <polygon id="Rectangle-4" fill-opacity="0.459861866" points="3 0 4 0 3 1"></polygon>
                        <polygon id="Rectangle-4-Copy" fill-opacity="0.459861866" points="0 3 1 3 0 4"></polygon>
                        <polygon id="Rectangle-3" fill-opacity="0.742866848" points="0 9.09494702e-13 3 0 3 1 1 1 1 3 0 3"></polygon>
                    </g>
                </g>
                <g id="LayerHandleRedrawn" transform="translate(0.000000, 6.000000)">
                    <g id="Group-3">
                        <polygon id="Rectangle-4" fill-opacity="0.459861866" points="3 0 4 0 3 1"></polygon>
                        <polygon id="Rectangle-4-Copy" fill-opacity="0.459861866" points="0 3 1 3 0 4"></polygon>
                        <polygon id="Rectangle-3" fill-opacity="0.742866848" points="0 9.09494702e-13 3 0 3 1 1 1 1 3 0 3"></polygon>
                    </g>
                </g>
                <g id="LayerHandleRedrawn" transform="translate(0.000000, 12.000000)">
                    <g id="Group-3">
                        <polygon id="Rectangle-4" fill-opacity="0.459861866" points="3 0 4 0 3 1"></polygon>
                        <polygon id="Rectangle-4-Copy" fill-opacity="0.459861866" points="0 3 1 3 0 4"></polygon>
                        <polygon id="Rectangle-3" fill-opacity="0.742866848" points="0 9.09494702e-13 3 0 3 1 1 1 1 3 0 3"></polygon>
                    </g>
                </g>
                <g id="LayerHandleRedrawn" transform="translate(6.000000, 0.000000)">
                    <g id="Group-3">
                        <polygon id="Rectangle-4" fill-opacity="0.459861866" points="3 0 4 0 3 1"></polygon>
                        <polygon id="Rectangle-4-Copy" fill-opacity="0.459861866" points="0 3 1 3 0 4"></polygon>
                        <polygon id="Rectangle-3" fill-opacity="0.742866848" points="0 9.09494702e-13 3 0 3 1 1 1 1 3 0 3"></polygon>
                    </g>
                </g>
                <g id="LayerHandleRedrawn" transform="translate(6.000000, 6.000000)">
                    <g id="Group-3">
                        <polygon id="Rectangle-4" fill-opacity="0.459861866" points="3 0 4 0 3 1"></polygon>
                        <polygon id="Rectangle-4-Copy" fill-opacity="0.459861866" points="0 3 1 3 0 4"></polygon>
                        <polygon id="Rectangle-3" fill-opacity="0.742866848" points="0 9.09494702e-13 3 0 3 1 1 1 1 3 0 3"></polygon>
                    </g>
                </g>
                <g id="LayerHandleRedrawn" transform="translate(6.000000, 12.000000)">
                    <g id="Group-3">
                        <polygon id="Rectangle-4" fill-opacity="0.459861866" points="3 0 4 0 3 1"></polygon>
                        <polygon id="Rectangle-4-Copy" fill-opacity="0.459861866" points="0 3 1 3 0 4"></polygon>
                        <polygon id="Rectangle-3" fill-opacity="0.742866848" points="0 9.09494702e-13 3 0 3 1 1 1 1 3 0 3"></polygon>
                    </g>
                </g>
                <g id="LayerHandleRedrawn" transform="translate(12.000000, 0.000000)">
                    <g id="Group-3">
                        <polygon id="Rectangle-4" fill-opacity="0.459861866" points="3 0 4 0 3 1"></polygon>
                        <polygon id="Rectangle-4-Copy" fill-opacity="0.459861866" points="0 3 1 3 0 4"></polygon>
                        <polygon id="Rectangle-3" fill-opacity="0.742866848" points="0 9.09494702e-13 3 0 3 1 1 1 1 3 0 3"></polygon>
                    </g>
                </g>
                <g id="LayerHandleRedrawn" transform="translate(12.000000, 6.000000)">
                    <g id="Group-3">
                        <polygon id="Rectangle-4" fill-opacity="0.459861866" points="3 0 4 0 3 1"></polygon>
                        <polygon id="Rectangle-4-Copy" fill-opacity="0.459861866" points="0 3 1 3 0 4"></polygon>
                        <polygon id="Rectangle-3" fill-opacity="0.742866848" points="0 9.09494702e-13 3 0 3 1 1 1 1 3 0 3"></polygon>
                    </g>
                </g>
                <g id="LayerHandleRedrawn" transform="translate(12.000000, 12.000000)">
                    <g id="Group-3">
                        <polygon id="Rectangle-4" fill-opacity="0.459861866" points="3 0 4 0 3 1"></polygon>
                        <polygon id="Rectangle-4-Copy" fill-opacity="0.459861866" points="0 3 1 3 0 4"></polygon>
                        <polygon id="Rectangle-3" fill-opacity="0.742866848" points="0 9.09494702e-13 3 0 3 1 1 1 1 3 0 3"></polygon>
                    </g>
                </g>
            </g>
        </g>
    </g>
</svg>