<?xml version="1.0" encoding="UTF-8"?>
<svg width="16px" height="16px" viewBox="0 0 16 16" version="1.1" xmlns="http://www.w3.org/2000/svg" xmlns:xlink="http://www.w3.org/1999/xlink">
    <!-- Generator: Sketch 42 (36781) - http://www.bohemiancoding.com/sketch -->
    <title>Artboard 7 Copy</title>
    <desc>Created with Sketch.</desc>
    <defs></defs>
    <g id="Page-1" stroke="none" stroke-width="1" fill="none" fill-rule="evenodd">
        <g id="Artboard-7-Copy" fill="#FFFFFF">
            <g id="Grip">
                <g id="Slash">
                    <polygon id="Rectangle-4-Copy-2" fill-opacity="0.459861866" points="3 0 4 0 3 1"></polygon>
                    <polygon id="Rectangle-4-Copy-3" fill-opacity="0.459861866" points="0 3 1 3 0 4"></polygon>
                    <path d="M0.5,0 L3,0 L3,1 L1,1 L1,3 L0,3 L0,0 L0.5,0 Z" id="Combined-Shape" fill-opacity="0.74"></path>
                </g>
                <g id="Slash-Copy" transform="translate(6.000000, 0.000000)">
                    <polygon id="Rectangle-4-Copy-2" fill-opacity="0.459861866" points="3 0 4 0 3 1"></polygon>
                    <polygon id="Rectangle-4-Copy-3" fill-opacity="0.459861866" points="0 3 1 3 0 4"></polygon>
                    <path d="M0.5,0 L3,0 L3,1 L1,1 L1,3 L0,3 L0,0 L0.5,0 Z" id="Combined-Shape" fill-opacity="0.74"></path>
                </g>
                <g id="Slash-Copy-2" transform="translate(12.000000, 0.000000)">
                    <polygon id="Rectangle-4-Copy-2" fill-opacity="0.459861866" points="3 0 4 0 3 1"></polygon>
                    <polygon id="Rectangle-4-Copy-3" fill-opacity="0.459861866" points="0 3 1 3 0 4"></polygon>
                    <path d="M0.5,0 L3,0 L3,1 L1,1 L1,3 L0,3 L0,0 L0.5,0 Z" id="Combined-Shape" fill-opacity="0.74"></path>
                </g>
                <g id="Slash-Copy-3" transform="translate(12.000000, 6.000000)">
                    <polygon id="Rectangle-4-Copy-2" fill-opacity="0.459861866" points="3 0 4 0 3 1"></polygon>
                    <polygon id="Rectangle-4-Copy-3" fill-opacity="0.459861866" points="0 3 1 3 0 4"></polygon>
                    <path d="M0.5,0 L3,0 L3,1 L1,1 L1,3 L0,3 L0,0 L0.5,0 Z" id="Combined-Shape" fill-opacity="0.74"></path>
                </g>
                <g id="Slash-Copy-8" transform="translate(12.000000, 12.000000)">
                    <polygon id="Rectangle-4-Copy-2" fill-opacity="0.459861866" points="3 0 4 0 3 1"></polygon>
                    <polygon id="Rectangle-4-Copy-3" fill-opacity="0.459861866" points="0 3 1 3 0 4"></polygon>
                    <path d="M0.5,0 L3,0 L3,1 L1,1 L1,3 L0,3 L0,0 L0.5,0 Z" id="Combined-Shape" fill-opacity="0.74"></path>
                </g>
                <g id="Slash-Copy-4" transform="translate(6.000000, 6.000000)">
                    <polygon id="Rectangle-4-Copy-2" fill-opacity="0.459861866" points="3 0 4 0 3 1"></polygon>
                    <polygon id="Rectangle-4-Copy-3" fill-opacity="0.459861866" points="0 3 1 3 0 4"></polygon>
                    <path d="M0.5,0 L3,0 L3,1 L1,1 L1,3 L0,3 L0,0 L0.5,0 Z" id="Combined-Shape" fill-opacity="0.74"></path>
                </g>
                <g id="Slash-Copy-7" transform="translate(6.000000, 12.000000)">
                    <polygon id="Rectangle-4-Copy-2" fill-opacity="0.459861866" points="3 0 4 0 3 1"></polygon>
                    <polygon id="Rectangle-4-Copy-3" fill-opacity="0.459861866" points="0 3 1 3 0 4"></polygon>
                    <path d="M0.5,0 L3,0 L3,1 L1,1 L1,3 L0,3 L0,0 L0.5,0 Z" id="Combined-Shape" fill-opacity="0.74"></path>
                </g>
                <g id="Slash-Copy-5" transform="translate(0.000000, 6.000000)">
                    <polygon id="Rectangle-4-Copy-2" fill-opacity="0.459861866" points="3 0 4 0 3 1"></polygon>
                    <polygon id="Rectangle-4-Copy-3" fill-opacity="0.459861866" points="0 3 1 3 0 4"></polygon>
                    <path d="M0.5,0 L3,0 L3,1 L1,1 L1,3 L0,3 L0,0 L0.5,0 Z" id="Combined-Shape" fill-opacity="0.74"></path>
                </g>
                <g id="Slash-Copy-6" transform="translate(0.000000, 12.000000)">
                    <polygon id="Rectangle-4-Copy-2" fill-opacity="0.459861866" points="3 0 4 0 3 1"></polygon>
                    <polygon id="Rectangle-4-Copy-3" fill-opacity="0.459861866" points="0 3 1 3 0 4"></polygon>
                    <path d="M0.5,0 L3,0 L3,1 L1,1 L1,3 L0,3 L0,0 L0.5,0 Z" id="Combined-Shape" fill-opacity="0.74"></path>
                </g>
            </g>
        </g>
    </g>
</svg>