<?xml version="1.0" encoding="UTF-8" standalone="no"?>
<svg
   xmlns:dc="http://purl.org/dc/elements/1.1/"
   xmlns:cc="http://creativecommons.org/ns#"
   xmlns:rdf="http://www.w3.org/1999/02/22-rdf-syntax-ns#"
   xmlns:svg="http://www.w3.org/2000/svg"
   xmlns="http://www.w3.org/2000/svg"
   xmlns:xlink="http://www.w3.org/1999/xlink"
   xmlns:sodipodi="http://sodipodi.sourceforge.net/DTD/sodipodi-0.dtd"
   xmlns:inkscape="http://www.inkscape.org/namespaces/inkscape"
   width="24px"
   height="24px"
   viewBox="0 0 24 24"
   version="1.1"
   id="svg2200"
   sodipodi:docname="lock-layer-disabled.svg"
   inkscape:version="0.92.2 (5c3e80d, 2017-08-06)">
  <metadata
     id="metadata2204">
    <rdf:RDF>
      <cc:Work
         rdf:about="">
        <dc:format>image/svg+xml</dc:format>
        <dc:type
           rdf:resource="http://purl.org/dc/dcmitype/StillImage" />
        <dc:title>lock-layer</dc:title>
      </cc:Work>
    </rdf:RDF>
  </metadata>
  <sodipodi:namedview
     pagecolor="#ffffff"
     bordercolor="#666666"
     borderopacity="1"
     objecttolerance="10"
     gridtolerance="10"
     guidetolerance="10"
     inkscape:pageopacity="0"
     inkscape:pageshadow="2"
     inkscape:window-width="640"
     inkscape:window-height="480"
     id="namedview2202"
     showgrid="false"
     inkscape:zoom="23.75"
     inkscape:cx="12"
     inkscape:cy="12"
     inkscape:current-layer="svg2200"
     inkscape:measure-start="0,0"
     inkscape:measure-end="0,0" />
  <!-- Generator: Sketch 43.1 (39012) - http://www.bohemiancoding.com/sketch -->
  <title
     id="title2186">lock-layer</title>
  <desc
     id="desc2188">Created with Sketch.</desc>
  <defs
     id="defs2191">
    <polygon
       id="path-1"
       points="0 0 24 0 24 24 0 24" />
    <mask
       id="mask-2"
       fill="white">
      <use
         xlink:href="#path-1"
         id="use2193"
         x="0"
         y="0"
         width="100%"
         height="100%" />
    </mask>
  </defs>
  <path
     style="fill:#ffffff;fill-rule:nonzero;stroke:none;stroke-width:1"
     d="M 12,1.5 C 9.1152436,1.5 7.0374914,3.4446367 6.5917969,5.8007812 l 2.3710937,0.34375 C 9.2492982,4.776609 10.501055,3.9003906 12,3.9003906 13.71,3.9003906 15.099609,5.04 15.099609,6.75 V 10.5 H 10.248047 8.9003906 6.5 6 c -1.1,0 -2,0.9 -2,2 v 7 c 0,1.1 0.9,2 2,2 h 12 c 1.1,0 2,-0.9 2,-2 v -7 c 0,-1.1 -0.9,-2 -2,-2 H 17.5 V 6.75 C 17.5,3.99 15.265263,1.5 12,1.5 Z m 0,12.722656 c 0.921351,-3.79e-4 1.668348,0.746618 1.667969,1.667969 C 13.667269,16.811213 12.920588,17.55702 12,17.556641 11.079412,17.55702 10.332731,16.811213 10.332031,15.890625 10.331652,14.969274 11.078649,14.222277 12,14.222656 Z"
     id="Shape"
     inkscape:connector-curvature="0"
     sodipodi:nodetypes="sccssccccsssssssscssccccc" />
</svg>
