<?xml version="1.0" encoding="iso-8859-1"?>
<!-- Generator: Adobe Illustrator 16.0.0, SVG Export Plug-In . SVG Version: 6.00 Build 0)  -->
<!DOCTYPE svg PUBLIC "-//W3C//DTD SVG 1.1//EN" "http://www.w3.org/Graphics/SVG/1.1/DTD/svg11.dtd">
<svg version="1.1" id="Capa_1" xmlns="http://www.w3.org/2000/svg" xmlns:xlink="http://www.w3.org/1999/xlink" x="0px" y="0px"
	 width="485.213px" height="485.212px" viewBox="0 0 485.213 485.212" style="enable-background:new 0 0 485.213 485.212;"
	 xml:space="preserve">
<g>
	<path d="M242.606,0C142.124,0,60.651,81.473,60.651,181.955c0,40.928,13.504,78.659,36.31,109.075l145.646,194.183L388.252,291.03
		c22.808-30.416,36.31-68.146,36.31-109.075C424.562,81.473,343.089,0,242.606,0z M242.606,303.257
		c-66.989,0-121.302-54.311-121.302-121.302c0-66.989,54.313-121.304,121.302-121.304c66.991,0,121.302,54.315,121.302,121.304
		C363.908,248.947,309.598,303.257,242.606,303.257z"/>
</g>
<g>
</g>
<g>
</g>
<g>
</g>
<g>
</g>
<g>
</g>
<g>
</g>
<g>
</g>
<g>
</g>
<g>
</g>
<g>
</g>
<g>
</g>
<g>
</g>
<g>
</g>
<g>
</g>
<g>
</g>
</svg>
