<?xml version="1.0" encoding="UTF-8"?>
<svg width="6px" height="8px" viewBox="0 0 6 8" version="1.1" xmlns="http://www.w3.org/2000/svg" xmlns:xlink="http://www.w3.org/1999/xlink">
    <!-- Generator: Sketch 42 (36781) - http://www.bohemiancoding.com/sketch -->
    <title>ic_delete_forever_white_24px</title>
    <desc>Created with Sketch.</desc>
    <defs></defs>
    <g id="Symbols" stroke="none" stroke-width="1" fill="none" fill-rule="evenodd">
        <g id="Delete-Button" transform="translate(-4.000000, -3.000000)">
            <g id="Group-2-Copy-2">
                <g id="ic_delete_forever_white_24px" transform="translate(2.000000, 2.000000)">
                    <g id="Group">
                        <polygon id="Shape" points="0 0 10 0 10 10 0 10"></polygon>
                        <path d="M2.5,7.91666667 C2.5,8.375 2.875,8.75 3.33333333,8.75 L6.66666667,8.75 C7.125,8.75 7.5,8.375 7.5,7.91666667 L7.5,2.91666667 L2.5,2.91666667 L2.5,7.91666667 Z M3.525,4.95 L4.1125,4.3625 L5,5.24583333 L5.88333333,4.3625 L6.47083333,4.95 L5.5875,5.83333333 L6.47083333,6.71666667 L5.88333333,7.30416667 L5,6.42083333 L4.11666667,7.30416667 L3.52916667,6.71666667 L4.4125,5.83333333 L3.525,4.95 Z M6.45833333,1.66666667 L6.04166667,1.25 L3.95833333,1.25 L3.54166667,1.66666667 L2.08333333,1.66666667 L2.08333333,2.5 L7.91666667,2.5 L7.91666667,1.66666667 L6.45833333,1.66666667 Z" id="Shape" fill="#393939" fill-rule="nonzero"></path>
                        <polygon id="Shape" points="0 0 10 0 10 10 0 10"></polygon>
                    </g>
                </g>
            </g>
        </g>
    </g>
</svg>