<?xml version="1.0" encoding="UTF-8"?>
<svg width="54px" height="54px" viewBox="0 0 54 54" version="1.1" xmlns="http://www.w3.org/2000/svg" xmlns:xlink="http://www.w3.org/1999/xlink">
    <!-- Generator: Sketch 42 (36781) - http://www.bohemiancoding.com/sketch -->
    <title>noun_733434_cc</title>
    <desc>Created with Sketch.</desc>
    <defs></defs>
    <g id="Page-1" stroke="none" stroke-width="1" fill="none" fill-rule="evenodd">
        <g id="noun_733434_cc" transform="translate(0.000000, -1.000000)" fill-rule="nonzero" fill="#000000">
            <g id="Group" transform="translate(0.000000, 0.637820)">
                <path d="M27,0.36217 C24.7908,0.36217 23,2.15297 23,4.36217 L23,23.36219 L4,23.36219 C1.7908,23.36219 0,25.153 0,27.3622 C0,29.5714 1.7908,31.3622 4,31.3622 L23,31.3622 L23,50.3622 C23,52.5714 24.7908,54.3622 27,54.3622 C29.2092,54.3622 31,52.5714 31,50.3622 L31,31.3622 L50,31.3622 C52.2092,31.3622 54,29.5714 54,27.3622 C54,25.153 52.2092,23.36219 50,23.36219 L31,23.36219 L31,4.36217 C31,2.15297 29.2092,0.36217 27,0.36217 L27,0.36217 Z" id="Shape"></path>
            </g>
        </g>
    </g>
</svg>