<?xml version="1.0" encoding="iso-8859-1"?>
<svg xmlns="http://www.w3.org/2000/svg" xmlns:xlink="http://www.w3.org/1999/xlink" version="1.1" viewBox="0 0 181.395 181.395" enable-background="new 0 0 181.395 181.395" width="512px" height="512px">
  <g>
    <path d="m20.618,181.395v-181.395h62.293c22.506,0 40.074,4.174 52.699,12.521 12.623,8.346 18.936,20.785 18.936,37.313 0,8.639-2.033,16.318-6.104,23.049-4.07,6.729-10.34,11.795-18.813,15.199 10.631,2.408 18.479,7.246 23.547,14.514 5.064,7.268 7.6,15.637 7.6,25.104 0,17.691-5.939,31.064-17.814,40.115-11.879,9.055-28.904,13.58-51.082,13.58h-71.262zm42.235-105.772h20.93c9.551-0.166 16.695-2.014 21.43-5.545 4.734-3.529 7.102-8.699 7.102-15.51 0-7.725-2.41-13.35-7.225-16.881-4.82-3.529-12.211-5.295-22.178-5.295h-20.059v43.231zm0,27.908v45.473h29.027c8.971,0 15.699-1.766 20.184-5.297 4.484-3.529 6.729-8.947 6.729-16.256 0-7.891-1.932-13.85-5.795-17.879-3.861-4.027-10.111-6.041-18.748-6.041h-31.397z" fill="#FFFFFF"/>
  </g>
</svg>
