<?xml version="1.0" encoding="UTF-8"?>
<svg width="36px" height="36px" viewBox="0 0 36 36" version="1.1" xmlns="http://www.w3.org/2000/svg" xmlns:xlink="http://www.w3.org/1999/xlink">
    <!-- Generator: Sketch 43.1 (39012) - http://www.bohemiancoding.com/sketch -->
    <title>Inspector-delete</title>
    <desc>Created with Sketch.</desc>
    <defs></defs>
    <g id="AllEx()" stroke="none" stroke-width="1" fill="none" fill-rule="evenodd">
        <g id="Inspector-delete">
            <g id="Delete">
                <g id="noun_943203_cc" transform="translate(9.000000, 6.000000)" fill-rule="nonzero" fill="#0C4A6E">
                    <g id="Group" transform="translate(0.012578, 0.010428)">
                        <path d="M8.48408484,0.0391755952 C7.82205359,0.0391755952 7.28307703,0.577494048 7.28307703,1.23913591 L7.28307703,1.28724603 L1.18209786,1.28724603 C0.548764531,1.28724603 0.0371499479,1.80010317 0.0371499479,2.43504861 C0.0371499479,3.06997917 0.548764531,3.58286607 1.18209786,3.58286607 L17.7797359,3.58286607 C18.4130197,3.58286607 18.9246343,3.06997917 18.9246343,2.43504861 C18.9246343,1.80010317 18.4130197,1.28724603 17.7797359,1.28724603 L11.6787072,1.28724603 L11.6787072,1.23913591 C11.6787072,0.575435516 11.1397802,0.0391755952 10.4777489,0.0391755952 L8.48408484,0.0391755952 L8.48408484,0.0391755952 Z M2.11888693,4.55414087 C0.884975469,4.55414087 -0.0840740104,5.62881349 0.0491733854,6.86580754 L1.67847286,22.0481935 C1.79326453,23.114627 2.68839214,23.914369 3.75219422,23.914369 L15.2135979,23.914369 C16.2773999,23.914369 17.1685197,23.1125883 17.2833114,22.0481935 L18.9166187,6.86580754 C19.047788,5.62881349 18.0808661,4.55414087 16.8469052,4.55414087 L2.11888693,4.55414087 L2.11888693,4.55414087 Z M5.64976974,8.96879365 C5.91621505,8.96879365 6.12214734,9.18550496 6.12214734,9.44236508 L6.12214734,19.0261498 C6.12214734,19.2912242 5.91418641,19.4997212 5.64976974,19.4997212 C5.39356661,19.4997212 5.17338432,19.2912242 5.17338432,19.0261498 L5.17338432,9.44236508 C5.17338432,9.18550496 5.39356661,8.96879365 5.64976974,8.96879365 Z M9.48489995,8.96879365 C9.74931661,8.96879365 9.95732703,9.18550496 9.95732703,9.44236508 L9.95732703,19.0261498 C9.95732703,19.2912242 9.74931661,19.4997212 9.48489995,19.4997212 C9.22053276,19.4997212 9.00856401,19.2912242 9.00856401,19.0261498 L9.00856401,9.44236508 C9.00856401,9.18550496 9.22053276,8.96879365 9.48489995,8.96879365 Z M13.3160223,8.96879365 C13.5824677,8.96879365 13.7883999,9.18550496 13.7883999,9.44236508 L13.7883999,19.0261498 C13.7883999,19.2912242 13.580439,19.4997212 13.3160223,19.4997212 C13.0516057,19.4997212 12.8436447,19.2912242 12.8436447,19.0261498 L12.8436447,9.44236508 C12.8436447,9.18550496 13.0536838,8.96879365 13.3160223,8.96879365 Z" id="Shape"></path>
                    </g>
                </g>
                <rect id="Rectangle-13" x="0" y="0" width="36" height="36"></rect>
            </g>
        </g>
    </g>
</svg>