<?xml version="1.0" encoding="UTF-8"?>
<svg width="36px" height="36px" viewBox="0 0 36 36" version="1.1" xmlns="http://www.w3.org/2000/svg" xmlns:xlink="http://www.w3.org/1999/xlink">
    <!-- Generator: Sketch 43.1 (39012) - http://www.bohemiancoding.com/sketch -->
    <title>Inspector-convert2symbol</title>
    <desc>Created with Sketch.</desc>
    <defs></defs>
    <g id="AllEx()" stroke="none" stroke-width="1" fill="none" fill-rule="evenodd">
        <g id="Inspector-convert2symbol" fill-rule="nonzero" fill="#0C4A6E">
            <g id="Convert-To-Symbol">
                <g id="noun_832400_cc" transform="translate(9.000000, 6.000000)">
                    <g id="Group">
                        <g id="Shape">
                            <path d="M8,19 C8,20.6567153 6.65671525,22 5,22 C3.34328475,22 2,20.6567153 2,19 C2,17.3432847 3.34328475,16 5,16 C6.65671525,16 8,17.3432847 8,19 Z M10,19 C10,16.2387153 7.76128475,14 5,14 C2.23871525,14 0,16.2387153 0,19 C0,21.7612847 2.23871525,24 5,24 C7.76128475,24 10,21.7612847 10,19 Z"></path>
                            <path d="M16,19 C16,20.6567153 14.6567153,22 13,22 C11.3432847,22 10,20.6567153 10,19 C10,17.3432847 11.3432847,16 13,16 C14.6567153,16 16,17.3432847 16,19 Z M18,19 C18,16.2387153 15.7612847,14 13,14 C10.2387153,14 8,16.2387153 8,19 C8,21.7612847 10.2387153,24 13,24 C15.7612847,24 18,21.7612847 18,19 Z"></path>
                            <path d="M12,12 C12,13.6567153 10.6567153,15 9,15 C7.34328475,15 6,13.6567153 6,12 C6,10.3432847 7.34328475,9 9,9 C10.6567153,9 12,10.3432847 12,12 Z M14,12 C14,9.23871525 11.7612847,7 9,7 C6.23871525,7 4,9.23871525 4,12 C4,14.7612847 6.23871525,17 9,17 C11.7612847,17 14,14.7612847 14,12 Z"></path>
                            <path d="M10,8 L10,1 C10,0.44771525 9.55228475,0 9,0 C8.44771525,0 8,0.44771525 8,1 L8,8 C8,8.55228475 8.44771525,9 9,9 C9.55228475,9 10,8.55228475 10,8 Z"></path>
                            <path d="M8.29289322,0.292893219 L5.29289322,3.29289322 C4.90236893,3.68341751 4.90236893,4.31658249 5.29289322,4.70710678 C5.68341751,5.09763107 6.31658249,5.09763107 6.70710678,4.70710678 L9.70710678,1.70710678 C10.0976311,1.31658249 10.0976311,0.683417511 9.70710678,0.292893219 C9.31658249,-0.0976310729 8.68341751,-0.0976310729 8.29289322,0.292893219 Z"></path>
                            <path d="M8.29289322,1.70710678 L11.2928932,4.70710678 C11.6834175,5.09763107 12.3165825,5.09763107 12.7071068,4.70710678 C13.0976311,4.31658249 13.0976311,3.68341751 12.7071068,3.29289322 L9.70710678,0.292893219 C9.31658249,-0.0976310729 8.68341751,-0.0976310729 8.29289322,0.292893219 C7.90236893,0.683417511 7.90236893,1.31658249 8.29289322,1.70710678 Z"></path>
                        </g>
                    </g>
                </g>
            </g>
        </g>
    </g>
</svg>