<?xml version="1.0" encoding="UTF-8"?>
<svg width="36px" height="36px" viewBox="0 0 36 36" version="1.1" xmlns="http://www.w3.org/2000/svg" xmlns:xlink="http://www.w3.org/1999/xlink">
    <!-- Generator: Sketch 43.1 (39012) - http://www.bohemiancoding.com/sketch -->
    <title>Inspector-duplicate</title>
    <desc>Created with Sketch.</desc>
    <defs></defs>
    <g id="AllEx()" stroke="none" stroke-width="1" fill="none" fill-rule="evenodd">
        <g id="Inspector-duplicate">
            <g id="Duplicate">
                <g id="noun_990691_cc" transform="translate(8.000000, 8.000000)" fill-rule="nonzero" fill="#0C4A6E">
                    <path d="M20.4767658,5.98972603 L15.3345725,5.98972603 L15.3345725,1.23287671 C15.3345725,0.905897478 15.2053243,0.592310462 14.9752611,0.361101229 C14.7451979,0.129891995 14.4331652,-1.21668277e-15 14.1078067,0 L1.2267658,0 C0.549241757,0 0,0.551977706 0,1.23287671 L0,14.1780822 C1.21065212e-15,14.8589812 0.549241757,15.4109589 1.2267658,15.4109589 L6.06908302,15.4109589 L6.06908302,20.4691781 C6.07095701,21.3138464 6.75183566,21.9981167 7.59231722,22 L20.4733581,22 C21.3164991,22 22,21.3130944 22,20.4657534 L22,7.5239726 C22.0000021,6.67796723 21.3185757,5.99161443 20.4767658,5.98972603 Z M21.4070632,20.4657534 C21.4070632,20.7137127 21.30905,20.9515162 21.1345854,21.1268498 C20.9601208,21.3021835 20.723496,21.4006849 20.4767658,21.4006849 L7.59231722,21.4006849 C7.07852816,21.4006849 6.66201983,20.9821018 6.66201983,20.4657534 L6.66201983,7.5239726 C6.66201983,7.27601335 6.76003302,7.03820986 6.93449763,6.86287619 C7.10896223,6.68754253 7.34558701,6.5890411 7.59231722,6.5890411 L20.4733581,6.5890411 C20.9858193,6.58903764 21.4017784,7.00553745 21.4036555,7.52054795 L21.4070632,20.4657534 Z" id="Shape"></path>
                </g>
                <rect id="Rectangle-14" x="0" y="0" width="36" height="36"></rect>
            </g>
        </g>
    </g>
</svg>