<?xml version="1.0" encoding="UTF-8"?>
<svg width="36px" height="36px" viewBox="0 0 36 36" version="1.1" xmlns="http://www.w3.org/2000/svg" xmlns:xlink="http://www.w3.org/1999/xlink">
    <!-- Generator: Sketch 43.1 (39012) - http://www.bohemiancoding.com/sketch -->
    <title>Inspector-addcode</title>
    <desc>Created with Sketch.</desc>
    <defs></defs>
    <g id="AllEx()" stroke="none" stroke-width="1" fill="none" fill-rule="evenodd">
        <g id="Inspector-addcode">
            <g id="Add-code">
                <g id="noun_938987_cc" transform="translate(5.500000, 9.000000)" fill-rule="nonzero" fill="#0C4A6E">
                    <g id="Group" transform="translate(-0.000000, 0.000000)">
                        <path d="M2.62931034,9.5 L7.84482759,3.49772727 C8.23275862,3.06590909 8.18965517,2.41818182 7.75862069,2.02954545 C7.32758621,1.64090909 6.68103448,1.68409091 6.29310345,2.11590909 L0.474137931,8.80909091 C0.129310345,9.19772727 0.129310345,9.80227273 0.474137931,10.1909091 L6.29310345,16.8840909 C6.50862069,17.1 6.76724138,17.2295455 7.06896552,17.2295455 C7.32758621,17.2295455 7.5862069,17.1431818 7.75862069,16.9704545 C7.97413793,16.7977273 8.10344828,16.5386364 8.10344828,16.2363636 C8.10344828,15.9772727 8.01724138,15.675 7.84482759,15.4590909 L2.62931034,9.5 Z" id="Shape"></path>
                        <path d="M18.7068966,2.11590909 C18.5344828,1.9 18.2758621,1.77045455 17.9741379,1.77045455 C17.7155172,1.77045455 17.4137931,1.85681818 17.1982759,2.02954545 C16.7672414,2.41818182 16.7241379,3.06590909 17.112069,3.49772727 L22.3706897,9.5 L17.1551724,15.5022727 C16.9827586,15.7181818 16.8965517,15.9772727 16.8965517,16.2795455 C16.8965517,16.5386364 17.0258621,16.7977273 17.2413793,17.0136364 C17.4137931,17.1863636 17.6724138,17.2727273 17.9310345,17.2727273 C18.2327586,17.2727273 18.5344828,17.1431818 18.7068966,16.9272727 L24.5258621,10.2340909 C24.8706897,9.84545455 24.8706897,9.24090909 24.5258621,8.85227273 L18.7068966,2.11590909 Z" id="Shape"></path>
                        <path d="M14.3534483,0.129545455 C13.7931034,2.35464426e-13 13.2327586,0.388636364 13.1034483,0.95 L9.78448276,17.6181818 C9.65517241,18.1795455 10.0431034,18.7409091 10.6034483,18.8704545 L10.8189655,18.8704545 C11.3362069,18.8704545 11.7672414,18.525 11.8534483,18.0068182 L15.1724138,1.33863636 C15.3017241,0.777272727 14.9568966,0.259090909 14.3534483,0.129545455 Z" id="Shape"></path>
                    </g>
                </g>
                <rect id="Rectangle-15" x="0" y="0" width="36" height="36"></rect>
            </g>
        </g>
    </g>
</svg>