<?xml version="1.0" encoding="UTF-8"?>
<svg width="36px" height="36px" viewBox="0 0 36 36" version="1.1" xmlns="http://www.w3.org/2000/svg" xmlns:xlink="http://www.w3.org/1999/xlink">
    <!-- Generator: Sketch 43.1 (39012) - http://www.bohemiancoding.com/sketch -->
    <title>Inspector-flipvertical</title>
    <desc>Created with Sketch.</desc>
    <defs></defs>
    <g id="AllEx()" stroke="none" stroke-width="1" fill="none" fill-rule="evenodd">
        <g id="Inspector-flipvertical">
            <g id="Group-6">
                <g id="noun_149080_cc-copy" transform="translate(19.000000, 18.000000) rotate(90.000000) translate(-19.000000, -18.000000) translate(8.000000, 7.000000)" fill-rule="nonzero" fill="#0C4A6E">
                    <path d="M10.3688762,21.2638965 L10.3688762,0.736913295 C10.3688762,0.38800022 10.1245397,0.0871792419 9.7842314,0.0160225669 C9.44343343,-0.0551341081 9.09969754,0.123493683 8.9606363,0.443453353 L0.0607168799,20.9704365 C0.0200757425,21.064167 0,21.1642771 0,21.2638965 C0,21.4052283 0.0406411373,21.5455788 0.120454455,21.6672812 C0.255598478,21.8748624 0.486714343,22 0.734478385,22 L9.63439781,22 C10.0398299,22 10.3688762,21.6702256 10.3688762,21.2638965 Z M1.8543131,20.5277929 L8.89991942,4.27806203 L8.89991942,20.5277929 L1.8543131,20.5277929 Z M21.8801111,21.6672812 C22.0152551,21.4597 22.0377791,21.1976471 21.939359,20.9704365 L19.4000224,15.1144875 C19.3990431,15.1125246 19.3985535,15.1110524 19.3975742,15.1095802 L16.8572582,9.24970531 C16.8562789,9.24774236 16.8552996,9.24577942 16.85481,9.24381648 L13.0384603,0.442962617 C12.8998887,0.123002947 12.5566425,-0.0556248438 12.2158445,0.0155318312 C11.8750465,0.0866885062 11.6307101,0.387509484 11.6307101,0.73642256 L11.6307101,21.2634057 C11.6307101,21.6697349 11.9597564,21.9995093 12.3651884,21.9995093 L21.2655975,21.9995093 C21.5128719,22 21.7439878,21.8748624 21.8801111,21.6672812 Z M13.0996668,5.86559199 L13.0996668,4.2775713 L13.7881179,5.86559199 L13.0996668,5.86559199 Z M13.0996668,8.79822847 L13.0996668,7.33779906 L14.4266244,7.33779906 L15.0597448,8.79822847 L13.0996668,8.79822847 Z M13.0996668,11.7303742 L13.0996668,10.2699448 L15.6982514,10.2699448 L16.3313717,11.7303742 L13.0996668,11.7303742 Z M13.0996668,14.6630107 L13.0996668,13.2025813 L16.9693886,13.2025813 L17.602509,14.6630107 L13.0996668,14.6630107 Z M13.0996668,17.5951564 L13.0996668,16.134727 L18.2410155,16.134727 L18.8741359,17.5951564 L13.0996668,17.5951564 Z M13.0996668,20.5277929 L13.0996668,19.0673635 L19.5126424,19.0673635 L20.1457628,20.5277929 L13.0996668,20.5277929 Z" id="Shape"></path>
                </g>
                <rect id="Rectangle-11" x="0" y="0" width="36" height="36"></rect>
            </g>
        </g>
    </g>
</svg>